<?xml version="1.0"?>
<svg xmlns="http://www.w3.org/2000/svg" xmlns:xlink="http://www.w3.org/1999/xlink" version="1.1" id="Capa_1" x="0px" y="0px" viewBox="0 0 480 480" style="enable-background:new 0 0 480 480;" xml:space="preserve" width="512px" height="512px"><g><g>
	<g>
		<path d="M240,0C107.452,0,0,107.452,0,240s107.452,240,240,240s240-107.452,240-240C479.85,107.514,372.486,0.15,240,0z M240,464    C116.288,464,16,363.712,16,240S116.288,16,240,16s224,100.288,224,224C463.859,363.653,363.653,463.859,240,464z" data-original="#000000" class="active-path" data-old_color="#000000" fill="#FFFFFF"/>
	</g>
</g><g>
	<g>
		<path d="M376,232H248V104c0-4.418-3.582-8-8-8s-8,3.582-8,8v128H104c-4.418,0-8,3.582-8,8s3.582,8,8,8h128v128    c0,4.418,3.582,8,8,8s8-3.582,8-8V248h128c4.418,0,8-3.582,8-8S380.418,232,376,232z" data-original="#000000" class="active-path" data-old_color="#000000" fill="#FFFFFF"/>
	</g>
</g></g> </svg>
