<svg id="Layer_1" enable-background="new 0 0 512 512" height="512" viewBox="0 0 512 512" width="512" xmlns="http://www.w3.org/2000/svg"><g><path d="m441 144.225v347.171c0 11.384-9.199 20.604-20.556 20.604h-328.888c-11.357 0-20.556-9.22-20.556-20.604v-470.792c0-11.384 9.199-20.604 20.556-20.604h205.556z" fill="#2196f3"/><path d="m410.167 113.32v378.076c0 11.383-9.199 20.604-20.556 20.604h30.833c11.357 0 20.556-9.22 20.556-20.604v-347.171z" fill="#1e88e5"/><path d="m441 144.225h-123.333c-11.353 0-20.556-9.225-20.556-20.604v-123.621z" fill="#90caf9"/><g fill="#fafafa"><path d="m356.443 249.819h-200.886c-8.534 0-15.453-6.918-15.453-15.453 0-8.534 6.918-15.453 15.453-15.453h200.885c8.534 0 15.453 6.918 15.453 15.453 0 8.534-6.918 15.453-15.452 15.453z"/><path d="m356.443 311.63h-200.886c-8.534 0-15.453-6.918-15.453-15.453 0-8.534 6.918-15.453 15.453-15.453h200.885c8.534 0 15.453 6.918 15.453 15.453 0 8.534-6.918 15.453-15.452 15.453z"/><path d="m356.443 373.441h-200.886c-8.534 0-15.453-6.918-15.453-15.453 0-8.534 6.918-15.453 15.453-15.453h200.885c8.534 0 15.453 6.918 15.453 15.453 0 8.534-6.918 15.453-15.452 15.453z"/><path d="m269.907 435.251h-114.35c-8.534 0-15.453-6.918-15.453-15.453 0-8.534 6.918-15.453 15.453-15.453h114.35c8.534 0 15.453 6.918 15.453 15.453 0 8.535-6.918 15.453-15.453 15.453z"/></g></g></svg>